<svg width="130" height="138" viewBox="0 0 130 138" fill="none" xmlns="http://www.w3.org/2000/svg">
<path d="M43.4021 51.1948L73.0652 35.3206C79.9003 31.6627 82.4761 23.1565 78.8183 16.3214C75.1605 9.48628 66.6544 6.91056 59.8192 10.5684L30.1561 26.4426C22.3968 30.5894 16.5505 37.5867 13.8493 45.9596L40.7315 54.0998C41.2676 52.8574 42.2091 51.8333 43.4021 51.1948Z" fill="#42C6B6"/>
<path d="M49.1082 61.8021C48.007 62.3918 46.7493 62.6238 45.5102 62.4658C44.271 62.3077 43.1119 61.7676 42.1938 60.9204C41.2758 60.0733 40.6445 58.9612 40.3877 57.7387C40.1308 56.5161 40.2612 55.244 40.7607 54.099L13.8786 45.9589C11.7715 52.4244 11.6472 59.3726 13.5219 65.9093C15.3965 72.446 19.1843 78.2722 24.3978 82.6383C29.6114 87.0043 36.0121 89.7104 42.7764 90.4082C49.5407 91.1061 56.3591 89.7639 62.3542 86.5543L76.1682 79.1617L62.9222 54.4095L49.1082 61.8021Z" fill="#44A8FF"/>
<path d="M98.9565 112.463C106.928 108.197 112.878 100.939 115.498 92.2859C118.119 83.6328 117.194 74.2933 112.928 66.3219C108.662 58.3504 101.405 52.4001 92.7515 49.7799C84.0985 47.1597 74.759 48.0843 66.7877 52.3501L62.9216 54.419L76.1676 79.1712L80.0336 77.1023C81.4404 76.3495 83.0885 76.1864 84.6155 76.6488C86.1425 77.1111 87.4233 78.1612 88.1761 79.5679C88.9289 80.9746 89.092 82.6228 88.6297 84.1498C88.1673 85.6768 87.1172 86.9576 85.7105 87.7104L81.8445 89.7793L95.0905 114.532L98.9565 112.463Z" fill="#F39873"/>
<path d="M95.0858 114.518L81.8398 89.7656L56.0427 103.571C49.2076 107.229 46.6319 115.735 50.2897 122.57C53.9474 129.405 62.4536 131.981 69.2887 128.323L95.0858 114.518Z" fill="#C482E9"/>
</svg>
